#!OML:ASF H:\ManfredETheater\Project 1\Capture day 1\Session 1\subject.ASF
:FULLY-SPECIFIED
:DEGREES
372
root -3.1236 17.1331 48.8846 2.08554 0.138418 -2.28216
lowerback 2.707 -0.841432 -0.8568
upperback -4.32313 -1.04697 2.4448
thorax -5.9452 -0.418422 3.10797
lowerneck -17.2649 -3.86284 -5.07143
upperneck 15.739 -4.95031 4.96136
head 7.9624 -2.17247 1.88777
rclavicle -2.60656e-014 4.29375e-014
rhumerus -42.2258 -16.425 -69.3617
rradius 36.0735
rwrist -2.55809
rhand -19.9401 -11.5617
rfingers 7.12502
rthumb 6.3976 -41.4451
lclavicle -2.60656e-014 4.29375e-014
lhumerus -42.4873 11.7304 77.4121
lradius 31.2204
lwrist -15.5475
lhand -6.56597 8.01235
lfingers 7.12502
lthumb 19.2882 37.0758
rfemur -10.3811 -2.24497 20.7582
rtibia 29.2571
rfoot -16.3738 -11.3174
rtoes 9.58206
lfemur -9.99049 -5.9248 -14.9599
ltibia 32.7848
lfoot -19.5268 3.25895
ltoes -1.83711
373
root -3.14281 17.1327 48.893 2.09316 0.156484 -2.30281
lowerback 2.717 -0.834679 -0.838571
upperback -4.33304 -1.0372 2.435
thorax -5.96243 -0.414327 3.08715
lowerneck -17.2719 -3.91967 -5.15856
upperneck 15.7988 -5.02602 5.05101
head 7.99245 -2.20437 1.92243
rclavicle -4.67144e-015 6.75868e-015
rhumerus -42.1754 -16.3493 -69.4049
rradius 36.0853
rwrist -2.57152
rhand -19.922 -11.554
rfingers 7.12502
rthumb 6.4151 -41.4368
lclavicle -4.67144e-015 6.75868e-015
lhumerus -42.5207 12.0327 77.2619
lradius 30.7399
lwrist -16.1334
lhand -6.15032 8.04316
lfingers 7.12502
lthumb 19.6878 37.0662
rfemur -10.352 -2.29182 20.8477
rtibia 29.25
rfoot -16.4155 -11.2783
rtoes 9.68085
lfemur -9.95701 -5.94467 -14.8692
ltibia 32.7638
lfoot -19.5404 3.25418
ltoes -1.90707
374
root -3.16124 17.1324 48.9012 2.09964 0.164975 -2.3241
lowerback 2.72527 -0.827364 -0.822076
upperback -4.33533 -1.02691 2.42467
thorax -5.97059 -0.410107 3.0665
lowerneck -17.287 -3.97251 -5.23638
upperneck 15.8507 -5.09808 5.14105
head 8.02102 -2.23381 1.95604
rclavicle 6.11263e-015 4.77083e-015
rhumerus -42.1118 -16.2653 -69.4577
rradius 36.0857
rwrist -2.56589
rhand -19.8902 -11.5368
rfingers 7.12502
rthumb 6.44584 -41.4187
lclavicle 6.11263e-015 4.77083e-015
lhumerus -42.5565 12.3192 77.1161
lradius 30.3226
lwrist -16.6739
lhand -5.73635 8.07353
lfingers 7.12502
lthumb 20.0858 37.0553
rfemur -10.3255 -2.31836 20.9372
rtibia 29.2455
rfoot -16.4543 -11.2553
rtoes 9.76604
lfemur -9.91799 -5.96452 -14.7819
ltibia 32.7374
lfoot -19.5505 3.26212
ltoes -2.00995
375
root -3.17875 17.1322 48.9091 2.10718 0.16839 -2.3414
lowerback 2.72618 -0.819186 -0.808252
upperback -4.33382 -1.01583 2.41218
thorax -5.97055 -0.405562 3.04478
lowerneck -17.2971 -4.02236 -5.30334
upperneck 15.8961 -5.16745 5.22397
head 8.04604 -2.26212 1.9859
rclavicle 2.73329e-015 -1.07344e-014
rhumerus -42.0439 -16.1763 -69.512
rradius 36.0737
rwrist -2.54435
rhand -19.8464 -11.5155
rfingers 7.12502
rthumb 6.48813 -41.3961
lclavicle 2.73329e-015 -1.07344e-014
lhumerus -42.6012 12.5745 76.9826
lradius 29.9717
lwrist -17.1541
lhand -5.32864 8.10945
lfingers 7.12502
lthumb 20.4776 37.0496
rfemur -10.3021 -2.33337 21.0202
rtibia 29.2421
rfoot -16.4882 -11.2433
rtoes 9.82492
lfemur -9.87667 -5.98352 -14.7032
ltibia 32.7064
lfoot -19.5602 3.27694
ltoes -2.12689
376
root -3.19553 17.1321 48.9166 2.11895 0.164953 -2.35948
lowerback 2.72312 -0.808256 -0.794157
upperback -4.33472 -1.00107 2.39869
thorax -5.97098 -0.399213 3.02155
lowerneck -17.285 -4.06992 -5.36411
upperneck 15.9281 -5.23576 5.30643
head 8.06257 -2.29003 2.015
rclavicle 5.29264e-015 -5.96354e-015
rhumerus -41.9849 -16.0794 -69.5656
rradius 36.059
rwrist -2.52228
rhand -19.7993 -11.4898
rfingers 7.12502
rthumb 6.5336 -41.369
lclavicle 5.29264e-015 -5.96354e-015
lhumerus -42.6597 12.7891 76.8651
lradius 29.6831
lwrist -17.5599
lhand -4.94236 8.13899
lfingers 7.12502
lthumb 20.8488 37.0388
rfemur -10.2871 -2.32968 21.1035
rtibia 29.2396
rfoot -16.5179 -11.2456
rtoes 9.87332
lfemur -9.83922 -6.00501 -14.6265
ltibia 32.672
lfoot -19.5679 3.30089
ltoes -2.23531
377
root -3.21192 17.1322 48.9234 2.13255 0.151338 -2.38565
lowerback 2.71741 -0.79406 -0.779034
upperback -4.33431 -0.981753 2.38823
thorax -5.96872 -0.390619 3.00047
lowerneck -17.2588 -4.11584 -5.41938
upperneck 15.9476 -5.30323 5.3879
head 8.07235 -2.31762 2.04315
rclavicle -9.93923e-016 1.90833e-014
rhumerus -41.9311 -15.9787 -69.6183
rradius 36.0448
rwrist -2.4985
rhand -19.748 -11.4607
rfingers 7.12502
rthumb 6.58313 -41.3384
lclavicle -9.93923e-016 1.90833e-014
lhumerus -42.7194 12.9619 76.7691
lradius 29.4472
lwrist -17.8829
lhand -4.58416 8.17134
lfingers 7.12502
lthumb 21.1929 37.0329
rfemur -10.2772 -2.28546 21.1983
rtibia 29.237
rfoot -16.5479 -11.2787
rtoes 9.92098
lfemur -9.80467 -6.02352 -14.5422
ltibia 32.6374
lfoot -19.5757 3.33307
ltoes -2.34093
